# xmcd
#
# Track frame offsets: 
#        150
#        17210
#        30465
#        44367
#        56365
#        70000
#        92515
#        112015
#        130725
#        146827
#        160922
#
# Disc length: 2439 seconds
#
# Revision: 2
# Processed by: cddbd v1.5.2PL0 Copyright (c) Steve Scherf et al.
# Submitted via: ExactAudioCopy v0.99pb4
#
DISCID=8f09850b
DTITLE=Björn Skifs - i2i
DYEAR=2007
DGENRE=Blues
TTITLE0=A thing called love
TTITLE1=Don't worry ' bout that
TTITLE2=All the way
TTITLE3=Chevrolet
TTITLE4=When my baby plays the trombone
TTITLE5=River of time
TTITLE6=Every step of the way
TTITLE7=Turn on the lights
TTITLE8=What about you
TTITLE9=Why the hell do you love me
TTITLE10=Here in this room
EXTD=
EXTT0=
EXTT1=
EXTT2=
EXTT3=
EXTT4=
EXTT5=
EXTT6=
EXTT7=
EXTT8=
EXTT9=
EXTT10=
PLAYORDER=
